<svg xmlns="http://www.w3.org/2000/svg" width="24" height="24.004" viewBox="0 0 24 24.004">
  <defs>
    <style>
      .cls-1 {
        fill: #4891df;
      }

      .cls-2 {
        fill: #2c3073;
        opacity: 0.18;
        mix-blend-mode: multiply;
        isolation: isolate;
      }

      .cls-3 {
        fill: #fbfbfb;
      }
    </style>
  </defs>
  <g id="组_181" data-name="组 181" transform="translate(-1597.182 1114.598)">
    <g id="组_180" data-name="组 180" transform="translate(1597.182 -1114.598)">
      <path id="路径_203" data-name="路径 203" class="cls-1" d="M690.242,132.951c-.058-.064-.117-.129-.175-.192a11.991,11.991,0,0,0-11.868-3.3,11.89,11.89,0,0,0-5.683,3.486,12.086,12.086,0,0,0-3.126,7.594,12.61,12.61,0,0,0,.053,1.654,11.963,11.963,0,0,0,.77,3.21,11.74,11.74,0,0,0,1.658,2.934c.181.239.378.478.587.708a12.882,12.882,0,0,0,1.825,1.646,11.98,11.98,0,0,0,17.137-3.116,11.741,11.741,0,0,0,1.28-2.6c.063-.184.111-.335.156-.487l.023-.079.022-.071c.108-.381.2-.755.265-1.129l.006-.052h0a12.742,12.742,0,0,0,.184-1.556c.013-.256.017-.515.012-.773a11.754,11.754,0,0,0-.237-2.175l-.042-.2a11.968,11.968,0,0,0-2.849-5.5Z" transform="translate(-669.371 -129.023)"/>
      <path id="路径_213" data-name="路径 213" class="cls-2" d="M690.061,132.742a12,12,0,0,0-11.878-3.3,11.881,11.881,0,0,0-5.688,3.488,12.064,12.064,0,0,0-2.955,6.033,12.211,12.211,0,0,0-.173,1.57,12.632,12.632,0,0,0,.054,1.654,10.566,10.566,0,0,0,.237,1.477,9.221,9.221,0,0,1,1.188-2.557,12.666,12.666,0,0,1,4.562-4.37,11.618,11.618,0,0,1,3.562-1.334,13.319,13.319,0,0,1,6.342.1c.363.062.639.115.73.138a21.924,21.924,0,0,1,4.026,1.66,10.4,10.4,0,0,1,3.28,3.041,11.927,11.927,0,0,0-.221-1.7l-.042-.2a11.969,11.969,0,0,0-2.849-5.509c-.057-.064-.116-.129-.175-.191Z" transform="translate(-669.358 -129.009)"/>
    </g>
    <g id="组_179" data-name="组 179" transform="translate(1599.448 -1111.649)">
      <path id="路径_409" data-name="路径 409" class="cls-3" d="M92.274,91.78a7,7,0,0,1,3.884-3.2c2.279-.615,6.3-.121,7.345,3.789a5.063,5.063,0,0,1-.338,3.922,4.82,4.82,0,0,1-2.8,2.16,3.5,3.5,0,0,1-4.426-2.389A2.974,2.974,0,0,1,97.6,92.576a.488.488,0,0,0,.253-.64.477.477,0,0,0-.639-.253A3.889,3.889,0,0,0,95.012,96.3a4.264,4.264,0,0,0,4.354,3.234,4.9,4.9,0,0,0,1.254-.157A5.869,5.869,0,0,0,104,96.775a5.977,5.977,0,0,0,.434-4.658c-1.218-4.585-5.874-5.176-8.515-4.465a8.006,8.006,0,0,0-4.475,3.632,7.9,7.9,0,0,0-.712,6.106.483.483,0,1,0,.941-.217.044.044,0,0,0-.012-.036A6.833,6.833,0,0,1,92.274,91.78Z" transform="translate(-88.828 -85.855)"/>
      <path id="路径_410" data-name="路径 410" class="cls-3" d="M470.726,410.226a1.581,1.581,0,1,0,1.581-1.581A1.581,1.581,0,0,0,470.726,410.226Z" transform="translate(-462.409 -401.42)"/>
      <path id="路径_411" data-name="路径 411" class="cls-3" d="M3.32,1.665a1.712,1.712,0,0,1,.422.205,1.3,1.3,0,0,1,.229.422.145.145,0,0,0,.193.072.141.141,0,0,0,.072-.072,1.479,1.479,0,0,1,.205-.386A1.364,1.364,0,0,1,4.9,1.677a.13.13,0,0,0,.084-.169A.146.146,0,0,0,4.9,1.423a1.566,1.566,0,0,1-.446-.229A1.281,1.281,0,0,1,4.237.8.145.145,0,0,0,4.044.724c-.024,0-.048.024-.072.06a1.341,1.341,0,0,1-.217.41,1.56,1.56,0,0,1-.422.217.13.13,0,0,0-.084.169.1.1,0,0,0,.072.084ZM16.384,4.716a1.343,1.343,0,0,1,.374.181,1.337,1.337,0,0,1,.205.362.127.127,0,0,0,.181.06.145.145,0,0,0,.06-.06.947.947,0,0,1,.193-.338,1.309,1.309,0,0,1,.41-.205.121.121,0,0,0,.072-.157.109.109,0,0,0-.072-.072,1.522,1.522,0,0,1-.4-.193,1,1,0,0,1-.193-.35.127.127,0,0,0-.181-.06.145.145,0,0,0-.06.06,1.08,1.08,0,0,1-.205.362A1.573,1.573,0,0,1,16.4,4.5a.125.125,0,0,0-.072.157.145.145,0,0,0,.06.06ZM6.312,16.054a1.522,1.522,0,0,1-.4-.193,1.115,1.115,0,0,1-.193-.35.127.127,0,0,0-.181-.06.145.145,0,0,0-.06.06,1.08,1.08,0,0,1-.205.362,1.446,1.446,0,0,1-.386.193.121.121,0,0,0-.072.157.109.109,0,0,0,.072.072,1.077,1.077,0,0,1,.374.181,1.338,1.338,0,0,1,.205.362.127.127,0,0,0,.181.06.145.145,0,0,0,.06-.06A1.138,1.138,0,0,1,5.89,16.5,1.309,1.309,0,0,1,6.3,16.3c.1,0,.169-.024.169-.121C6.493,16.079,6.408,15.994,6.312,16.054ZM3.718,7.913a.193.193,0,1,0,.193.193A.177.177,0,0,0,3.718,7.913Zm-1.58,6.622a.4.4,0,1,0,.4.4A.4.4,0,0,0,2.138,14.535Zm10.651,1.882a.247.247,0,1,0,.241.253A.245.245,0,0,0,12.789,16.416ZM14.8,2.34a1.076,1.076,0,0,1,.374.181,1.338,1.338,0,0,1,.205.362.127.127,0,0,0,.181.06.145.145,0,0,0,.06-.06.946.946,0,0,1,.193-.338,1.309,1.309,0,0,1,.41-.205.121.121,0,0,0,.072-.157.109.109,0,0,0-.072-.072,1.522,1.522,0,0,1-.4-.193,1,1,0,0,1-.193-.35.127.127,0,0,0-.181-.06.145.145,0,0,0-.06.06,1.08,1.08,0,0,1-.205.362,1.446,1.446,0,0,1-.386.193.12.12,0,0,0-.06.157A.145.145,0,0,0,14.8,2.34ZM8.676,17.5a.3.3,0,1,0,.3.3A.3.3,0,0,0,8.676,17.5ZM1.342,4.053a.2.2,0,1,0-.193-.205V3.86A.191.191,0,0,0,1.342,4.053ZM12.439.591a.3.3,0,0,0,.3-.3.289.289,0,0,0-.3-.289.3.3,0,0,0-.3.3A.3.3,0,0,0,12.439.591Zm4.873,15.367a1.522,1.522,0,0,1-.4-.193,1.115,1.115,0,0,1-.193-.35.127.127,0,0,0-.181-.06.145.145,0,0,0-.06.06,1.081,1.081,0,0,1-.205.362,1.446,1.446,0,0,1-.386.193.121.121,0,0,0-.072.157.109.109,0,0,0,.072.072,1.077,1.077,0,0,1,.374.181,1.337,1.337,0,0,1,.205.362.127.127,0,0,0,.181.06.145.145,0,0,0,.06-.06,1.138,1.138,0,0,1,.181-.338,1.309,1.309,0,0,1,.41-.205.125.125,0,0,0,.1-.145.086.086,0,0,0-.084-.1ZM1.945,11.483a1.309,1.309,0,0,1-.446-.229,1.281,1.281,0,0,1-.217-.4.145.145,0,0,0-.193-.072.141.141,0,0,0-.072.072,1.375,1.375,0,0,1-.229.41,1.467,1.467,0,0,1-.434.217.13.13,0,0,0-.084.169.146.146,0,0,0,.084.084,1.712,1.712,0,0,1,.422.205,1.375,1.375,0,0,1,.229.41.145.145,0,0,0,.193.072.141.141,0,0,0,.072-.072,1.48,1.48,0,0,1,.205-.386,1.668,1.668,0,0,1,.458-.241.13.13,0,0,0,.084-.169Q2.018,11.519,1.945,11.483Zm8.914-5.754a.3.3,0,0,0-.591.012.289.289,0,0,0,.3.289A.3.3,0,0,0,10.859,5.729Zm7.249,1.93a.484.484,0,0,0-.482.482,8.2,8.2,0,0,1-.072,1.086.478.478,0,0,0,.41.543h.072a.492.492,0,0,0,.482-.422A10.161,10.161,0,0,0,18.6,8.13.5.5,0,0,0,18.108,7.659Zm-.241,2.557a.485.485,0,0,0-.615.3,6.741,6.741,0,0,1-.314.76.483.483,0,0,0,.217.651.4.4,0,0,0,.205.048.492.492,0,0,0,.434-.277,6.87,6.87,0,0,0,.35-.868A.459.459,0,0,0,17.867,10.216Z" transform="translate(-0.261)"/>
      <path id="路径_412" data-name="路径 412" class="cls-3" d="M227.9,224.7a.483.483,0,0,0-.772-.579,7.421,7.421,0,0,1-5.418,2.848c-2.172,0-5.852-1.134-5.852-5.357a4.733,4.733,0,0,1,4.67-5.068,3.559,3.559,0,0,1,3.584,3.584,2.665,2.665,0,0,1-2.341,2.787.485.485,0,0,0,.1.965,3.611,3.611,0,0,0,3.21-3.753,4.516,4.516,0,0,0-4.549-4.549,5.683,5.683,0,0,0-5.635,6.033,5.822,5.822,0,0,0,2.474,5.02,7.841,7.841,0,0,0,4.344,1.3A8.322,8.322,0,0,0,227.9,224.7Z" transform="translate(-211.107 -211.773)"/>
    </g>
  </g>
</svg>
