<svg xmlns="http://www.w3.org/2000/svg" width="22" height="21.959" viewBox="0 0 22 21.959">
  <defs>
    <style>
      .cls-1 {
        fill: #4891e0;
      }
    </style>
  </defs>
  <path id="路径_52014" data-name="路径 52014" class="cls-1" d="M65.386,72.215a1.4,1.4,0,0,0-1.231.582c-.484.671.658,1.611.658,1.611l6.806,7.03,2.5-5.283Zm0,0,9.783,4.257-3.864,8.909a1.449,1.449,0,0,0,.57,1.253c.658.5,1.579-.671,1.579-.671l6.89-6.939Zm0,0,10.088.675-6.8-7.032-2.5,5.283,8.734,3.942a1.4,1.4,0,0,0,1.231-.582C86.4,78.088,85.257,77.147,85.257,77.147Zm0,0M78.2,64.92c-.658-.5-1.579.671-1.579.671l-6.89,6.941,5.178,2.552,3.861-8.906A1.455,1.455,0,0,0,78.2,64.92Zm0,0" transform="translate(-64.036 -64.798)"/>
</svg>
