<svg xmlns="http://www.w3.org/2000/svg" width="16" height="16" viewBox="0 0 16 16">
  <defs>
    <style>
      .cls-1 {
        fill: #fff;
      }

      .cls-2 {
        fill: #002377;
      }

      .cls-3 {
        fill: #c2121f;
      }
    </style>
  </defs>
  <g id="组_66077" data-name="组 66077" transform="translate(-5.69 -5.917)">
    <path id="路径_51958" data-name="路径 51958" class="cls-1" d="M15.245,21.183a7.927,7.927,0,0,0,.316,1.145h.66l-.529.343a8.092,8.092,0,0,0,.7,1.336l2.58-1.681h1.861l-3.827,2.5q.167.194.345.378L20.9,22.891v4.431a7.971,7.971,0,0,0,.955.209V21.183Zm9.091,6.349a7.972,7.972,0,0,0,.955-.209V22.941L28.8,25.23a8.115,8.115,0,0,0,.971-1.2l-2.618-1.7h1.861l1.26.822c.07-.144.137-.29.2-.437l-.59-.385h.739a7.864,7.864,0,0,0,.316-1.145H24.336v6.351ZM21.852,11.719a7.971,7.971,0,0,0-.955.209v4.524l-3.6-2.345a8.21,8.21,0,0,0-.913,1.154l2.549,1.662H17.075l-1.188-.775q-.119.248-.221.5l.417.272h-.521a7.841,7.841,0,0,0-.316,1.144h6.607Zm9.091,6.349a7.842,7.842,0,0,0-.316-1.144h-.6l.478-.311a8.075,8.075,0,0,0-.7-1.338l-2.529,1.649H25.419L29.2,14.458c-.111-.131-.225-.257-.345-.381L25.291,16.4V11.929a7.972,7.972,0,0,0-.955-.209v6.348h6.607Z" transform="translate(-9.404 -5.71)"/>
    <path id="路径_51959" data-name="路径 51959" class="cls-2" d="M35.271,35.431c.041.117.086.23.133.343l.529-.343Zm.1-5.677q-.054.135-.1.272h.52Zm13.194-2.575A8,8,0,0,0,45,25.032V29.5Zm-7.961-2.147a8,8,0,0,0-3.6,2.178l3.6,2.345ZM37.065,38.3a7.987,7.987,0,0,0,3.542,2.122V35.994Zm13.271-8.275q-.057-.157-.119-.311l-.478.311ZM45,40.425a7.992,7.992,0,0,0,3.513-2.091L45,36.044v4.38Zm5.187-4.611q.079-.191.149-.385H49.6Z" transform="translate(-29.114 -18.813)"/>
    <path id="路径_51960" data-name="路径 51960" class="cls-3" d="M14.932,21.822V15.474h6.607a8.1,8.1,0,0,0,0-3.114H14.932V6.012a7.867,7.867,0,0,0-1.188-.1h-.108a8.065,8.065,0,0,0-1.188.1V12.36H5.841a8.105,8.105,0,0,0,0,3.114h6.607v6.348a7.85,7.85,0,0,0,1.188.1h.106a8.365,8.365,0,0,0,1.19-.1Z" transform="translate(0 0)"/>
    <path id="路径_51961" data-name="路径 51961" class="cls-3" d="M67.023,192.874l2.616,1.705a8.082,8.082,0,0,0,.507-.883l-1.26-.822Zm.122-5.4,2.53-1.649a7.968,7.968,0,0,0-.608-.818l-3.783,2.468h1.861Zm-8.344,0-2.549-1.662a8.261,8.261,0,0,0-.5.887l1.188.775Zm.041,5.4-2.578,1.68a8.226,8.226,0,0,0,.611.815l3.828-2.5H58.843Z" transform="translate(-49.27 -176.257)"/>
  </g>
</svg>
