<svg xmlns="http://www.w3.org/2000/svg" width="16" height="16" viewBox="0 0 16 16">
  <defs>
    <style>
      .cls-1 {
        fill: #f0f0f0;
      }

      .cls-2 {
        fill: #003478;
      }

      .cls-3 {
        fill: #c60c31;
      }
    </style>
  </defs>
  <g id="组_66078" data-name="组 66078" transform="translate(-64.2 -64.2)">
    <path id="路径_51962" data-name="路径 51962" class="cls-1" d="M64.2,72.2a8,8,0,1,0,8-8A8,8,0,0,0,64.2,72.2Z"/>
    <path id="路径_51963" data-name="路径 51963" class="cls-2" d="M342.6,360.412a2.776,2.776,0,1,0,2.776-2.812A2.794,2.794,0,0,0,342.6,360.412Z" transform="translate(-273.351 -288.078)"/>
    <path id="路径_51964" data-name="路径 51964" class="cls-3" d="M350.435,358.266A2.815,2.815,0,0,1,352.723,357a2.951,2.951,0,0,1,1.622.51c.012.009.023.017.031.023a2.822,2.822,0,0,1,.971,1.341,2.861,2.861,0,0,1-.106,2.174s-.047.142-.073.137a2.638,2.638,0,0,0-.035-1.2,1.236,1.236,0,0,0-1.183-.793,1.49,1.49,0,0,0-.711.141c-.153.075-.189.13-.533.446a5.507,5.507,0,0,1-.611.527,1.381,1.381,0,0,1-1.112.068,1.367,1.367,0,0,1-.879-1.018A1.537,1.537,0,0,1,350.435,358.266Z" transform="translate(-280.71 -287.518)"/>
    <path id="路径_51965" data-name="路径 51965" d="M168.1,257.018l.388.255-1.6,2.468c-.13-.1-.258-.195-.387-.291Zm.6.383.4.273-1.6,2.441-.406-.282Zm.586.41.389.273-1.582,2.441-.4-.264Zm6.7-.131.4-.279,1.6,2.441-.378.268Zm.6-.406.4-.273.735,1.111-.384.286Zm.878,1.317.4-.26.726,1.087-.384.3Zm-2.091-.51.389-.26.739,1.106-.371.279Zm.88,1.342.395-.268.716,1.093-.377.273Zm.725,3.57.42.26-.75,1.129-.407-.279Zm.618.4.4.268-.73,1.111-.4-.273Zm.618.406.386.255-.717,1.137-.42-.281Zm-.869,1.341.373.251-.741,1.129-.4-.281Zm-.6-.4.353.246-.7,1.118-.409-.271Zm-.629-.421.393.26-.741,1.117-.4-.275Zm-8.424-1.06.4-.264,1.582,2.426-.362.275Zm-.6.432.406-.286.746,1.111-.4.264Zm.874,1.317.382-.268.753,1.087-.413.277Zm-1.46-.916.4-.29q.792,1.213,1.582,2.426l-.391.282Q167.294,265.3,166.5,264.089Z" transform="translate(-100.525 -189.455)"/>
  </g>
</svg>
