<svg xmlns="http://www.w3.org/2000/svg" width="31.264" height="30.86" viewBox="0 0 31.264 30.86">
  <defs>
    <style>
      .cls-1 {
        fill: #fbfbfb;
      }
    </style>
  </defs>
  <g id="组_181" data-name="组 181" transform="translate(-1601.044 1109.573)">
    <g id="组_179" data-name="组 179" transform="translate(1601.044 -1109.573)">
      <path id="路径_409" data-name="路径 409" class="cls-1" d="M93.578,94.862a11.931,11.931,0,0,1,6.62-5.448c3.886-1.049,10.732-.206,12.521,6.456a8.623,8.623,0,0,1-.576,6.682,8.216,8.216,0,0,1-4.77,3.68c-1.686.452-6.312.6-7.545-4.071a5.067,5.067,0,0,1,2.837-5.942.831.831,0,0,0,.432-1.09.814.814,0,0,0-1.09-.432,6.626,6.626,0,0,0-3.762,7.874,7.269,7.269,0,0,0,7.422,5.51,8.349,8.349,0,0,0,2.138-.267,10.005,10.005,0,0,0,5.757-4.441,10.179,10.179,0,0,0,.74-7.936c-2.077-7.813-10.013-8.82-14.515-7.607a13.646,13.646,0,0,0-7.628,6.188,13.454,13.454,0,0,0-1.213,10.4.823.823,0,0,0,1.6-.37.076.076,0,0,0-.021-.062A11.638,11.638,0,0,1,93.578,94.862Z" transform="translate(-87.706 -84.767)"/>
      <path id="路径_410" data-name="路径 410" class="cls-1" d="M470.726,411.338a2.693,2.693,0,1,0,2.693-2.693A2.693,2.693,0,0,0,470.726,411.338Z" transform="translate(-456.548 -396.33)"/>
      <path id="路径_411" data-name="路径 411" class="cls-1" d="M5.476,2.837a2.918,2.918,0,0,1,.72.35,2.216,2.216,0,0,1,.391.72.248.248,0,0,0,.329.123.24.24,0,0,0,.123-.123,2.522,2.522,0,0,1,.35-.658,2.326,2.326,0,0,1,.781-.391.222.222,0,0,0,.144-.288.248.248,0,0,0-.144-.144,2.668,2.668,0,0,1-.761-.391,2.184,2.184,0,0,1-.37-.678.248.248,0,0,0-.329-.123c-.041,0-.082.041-.123.1a2.286,2.286,0,0,1-.37.7,2.659,2.659,0,0,1-.72.37.222.222,0,0,0-.144.288.176.176,0,0,0,.123.144Zm22.266,5.2a2.289,2.289,0,0,1,.637.308,2.28,2.28,0,0,1,.35.617.217.217,0,0,0,.308.1.248.248,0,0,0,.1-.1,1.613,1.613,0,0,1,.329-.576,2.232,2.232,0,0,1,.7-.35.206.206,0,0,0,.123-.267.185.185,0,0,0-.123-.123,2.594,2.594,0,0,1-.678-.329,1.7,1.7,0,0,1-.329-.6.217.217,0,0,0-.308-.1.248.248,0,0,0-.1.1,1.842,1.842,0,0,1-.35.617,2.681,2.681,0,0,1-.637.329.214.214,0,0,0-.123.267A.248.248,0,0,0,27.742,8.039ZM10.574,27.365a2.594,2.594,0,0,1-.678-.329,1.9,1.9,0,0,1-.329-.6.217.217,0,0,0-.308-.1.248.248,0,0,0-.1.1,1.842,1.842,0,0,1-.35.617,2.465,2.465,0,0,1-.658.329.206.206,0,0,0-.123.267.185.185,0,0,0,.123.123,1.835,1.835,0,0,1,.637.308,2.28,2.28,0,0,1,.35.617.217.217,0,0,0,.308.1.248.248,0,0,0,.1-.1,1.94,1.94,0,0,1,.308-.576,2.232,2.232,0,0,1,.7-.35c.164,0,.288-.041.288-.206C10.883,27.406,10.739,27.262,10.574,27.365ZM6.154,13.487a.329.329,0,1,0,.329.329A.3.3,0,0,0,6.154,13.487ZM3.461,24.775a.678.678,0,1,0,.678.678A.684.684,0,0,0,3.461,24.775Zm18.154,3.207a.422.422,0,1,0,.411.432A.417.417,0,0,0,21.615,27.982ZM25.048,3.989a1.835,1.835,0,0,1,.637.308,2.28,2.28,0,0,1,.35.617.217.217,0,0,0,.308.1.248.248,0,0,0,.1-.1,1.613,1.613,0,0,1,.329-.576,2.232,2.232,0,0,1,.7-.35.206.206,0,0,0,.123-.267.185.185,0,0,0-.123-.123,2.594,2.594,0,0,1-.678-.329,1.7,1.7,0,0,1-.329-.6.217.217,0,0,0-.308-.1.248.248,0,0,0-.1.1,1.842,1.842,0,0,1-.35.617,2.466,2.466,0,0,1-.658.329.2.2,0,0,0-.1.267A.248.248,0,0,0,25.048,3.989ZM14.6,29.832a.514.514,0,1,0,.514.514A.509.509,0,0,0,14.6,29.832ZM2.1,6.908a.339.339,0,1,0-.329-.35v.021A.325.325,0,0,0,2.1,6.908Zm18.915-5.9a.509.509,0,0,0,.514-.514A.492.492,0,0,0,21.019,0,.509.509,0,0,0,20.5.514.5.5,0,0,0,21.019,1.007ZM29.325,27.2a2.594,2.594,0,0,1-.678-.329,1.9,1.9,0,0,1-.329-.6.217.217,0,0,0-.308-.1.248.248,0,0,0-.1.1,1.842,1.842,0,0,1-.35.617,2.465,2.465,0,0,1-.658.329.206.206,0,0,0-.123.267.185.185,0,0,0,.123.123,1.835,1.835,0,0,1,.637.308,2.28,2.28,0,0,1,.35.617.217.217,0,0,0,.308.1.248.248,0,0,0,.1-.1,1.941,1.941,0,0,1,.308-.576,2.231,2.231,0,0,1,.7-.35.213.213,0,0,0,.164-.247.147.147,0,0,0-.144-.164ZM3.132,19.573a2.232,2.232,0,0,1-.761-.391A2.184,2.184,0,0,1,2,18.5a.248.248,0,0,0-.329-.123.24.24,0,0,0-.123.123,2.344,2.344,0,0,1-.391.7,2.5,2.5,0,0,1-.74.37.222.222,0,0,0-.144.288A.248.248,0,0,0,.418,20a2.918,2.918,0,0,1,.72.35,2.344,2.344,0,0,1,.391.7.248.248,0,0,0,.329.123.24.24,0,0,0,.123-.123,2.522,2.522,0,0,1,.35-.658,2.844,2.844,0,0,1,.781-.411.222.222,0,0,0,.144-.288Q3.255,19.635,3.132,19.573ZM18.325,9.766a.5.5,0,0,0-1.007.021.492.492,0,0,0,.514.493A.5.5,0,0,0,18.325,9.766Zm12.356,3.29a.825.825,0,0,0-.822.822,13.986,13.986,0,0,1-.123,1.85.815.815,0,0,0,.7.925h.123a.839.839,0,0,0,.822-.72,17.319,17.319,0,0,0,.144-2.077A.854.854,0,0,0,30.682,13.055Zm-.411,4.359a.827.827,0,0,0-1.049.514,11.488,11.488,0,0,1-.535,1.3.824.824,0,0,0,.37,1.11.676.676,0,0,0,.35.082.839.839,0,0,0,.74-.473,11.71,11.71,0,0,0,.6-1.48A.782.782,0,0,0,30.271,17.414Z" transform="translate(-0.261)"/>
      <path id="路径_412" data-name="路径 412" class="cls-1" d="M237.06,231.122a.822.822,0,1,0-1.316-.987,12.644,12.644,0,0,1-9.231,4.852c-3.7,0-9.971-1.933-9.971-9.129a8.065,8.065,0,0,1,7.957-8.635c1.583,0,6.106,1.131,6.106,6.106a4.541,4.541,0,0,1-3.989,4.749.826.826,0,0,0,.164,1.645,6.153,6.153,0,0,0,5.469-6.394,7.7,7.7,0,0,0-7.751-7.751c-2.673,0-9.6,1.85-9.6,10.28a9.92,9.92,0,0,0,4.215,8.553,13.359,13.359,0,0,0,7.4,2.22A14.181,14.181,0,0,0,237.06,231.122Z" transform="translate(-208.428 -209.082)"/>
    </g>
  </g>
</svg>
