<svg xmlns="http://www.w3.org/2000/svg" width="21" height="21" viewBox="0 0 21 21">
  <defs>
    <style>
      .cls-1 {
        fill: #8247e5;
      }

      .cls-2 {
        fill: #fff;
      }
    </style>
  </defs>
  <g id="组_66098" data-name="组 66098" transform="translate(-232 -55)">
    <circle id="椭圆_460" data-name="椭圆 460" class="cls-1" cx="10.5" cy="10.5" r="10.5" transform="translate(232 55)"/>
    <path id="路径_51949" data-name="路径 51949" class="cls-2" d="M9.768,3.6a.838.838,0,0,0-.812,0L7.093,4.67l-1.266.7L3.964,6.44a.838.838,0,0,1-.812,0L1.672,5.6a.8.8,0,0,1-.406-.676V3.272A.752.752,0,0,1,1.672,2.6l1.457-.815a.838.838,0,0,1,.812,0L5.4,2.6a.8.8,0,0,1,.406.676V4.344l1.266-.722V2.55a.752.752,0,0,0-.406-.676L3.964.337a.838.838,0,0,0-.812,0L.406,1.874A.752.752,0,0,0,0,2.55v3.1a.752.752,0,0,0,.406.676L3.152,7.862a.838.838,0,0,0,.812,0L5.827,6.813l1.266-.722L8.956,5.043a.838.838,0,0,1,.812,0l1.457.815a.8.8,0,0,1,.406.676V8.188a.752.752,0,0,1-.406.676L9.768,9.7a.838.838,0,0,1-.812,0L7.5,8.887a.8.8,0,0,1-.406-.676V7.139l-1.266.722V8.933a.753.753,0,0,0,.406.676l2.746,1.538a.838.838,0,0,0,.812,0l2.746-1.538a.8.8,0,0,0,.406-.676v-3.1a.752.752,0,0,0-.406-.676Z" transform="translate(236 59.768)"/>
  </g>
</svg>
