<svg xmlns="http://www.w3.org/2000/svg" xmlns:xlink="http://www.w3.org/1999/xlink" width="144" height="33.178" viewBox="0 0 144 33.178">
  <defs>
    <style>
      .cls-1 {
        fill: url(#linear-gradient);
      }

      .cls-2 {
        opacity: 0.204;
        fill: url(#linear-gradient-2);
      }

      .cls-3 {
        fill: #ffe9c8;
      }

      .cls-4 {
        fill: none;
      }

      .cls-5 {
        fill: #cb2081;
      }

      .cls-6 {
        fill: #cb217f;
      }

      .cls-7 {
        fill: #cb2080;
      }

      .cls-8 {
        fill: #cb207f;
      }

      .cls-9 {
        fill: #dd7721;
      }

      .cls-10 {
        clip-path: url(#clip-path);
      }
    </style>
    <linearGradient id="linear-gradient" x1="0.5" x2="0.5" y2="1" gradientUnits="objectBoundingBox">
      <stop offset="0" stop-color="#f0b558"/>
      <stop offset="1" stop-color="#da6220"/>
    </linearGradient>
    <linearGradient id="linear-gradient-2" x1="0.5" y1="1" x2="0.5" gradientUnits="objectBoundingBox">
      <stop offset="0" stop-color="#fff"/>
      <stop offset="1" stop-color="#fff" stop-opacity="0"/>
    </linearGradient>
    <clipPath id="clip-path">
      <path id="路径_24670" data-name="路径 24670" class="cls-1" d="M517.693,282.841H414.876c-2.005,3.759-7.38,6.7-14.265,7.8v9.991c6.7,1.078,12.017,3.924,14.13,7.557h103.08c2.057-3.549,7.223-6.367,13.726-7.489V290.568C524.876,289.413,519.66,286.5,517.693,282.841Z" transform="translate(-400.611 -282.841)"/>
    </clipPath>
  </defs>
  <g id="组_46586" data-name="组 46586" transform="translate(-123 -206)">
    <g id="组_46583" data-name="组 46583" transform="translate(123 206)">
      <path id="路径_24651" data-name="路径 24651" class="cls-3" d="M535.781,288.445V303.4c-7.444.746-13.338,4.384-14.548,8.978H412.049c-1.232-4.677-7.324-8.366-14.959-9.018V288.484c7.791-.664,13.961-4.48,15.022-9.288H521.17C522.21,283.916,528.189,287.685,535.781,288.445Z" transform="translate(-394.509 -279.196)"/>
      <g id="组_46579" data-name="组 46579">
        <path id="路径_24652" data-name="路径 24652" class="cls-4" d="M521.09,280.625H412.3l.3.178-.3-.178h-.007c-1.059,4.35-7.215,7.8-14.987,8.4v13.456c7.617.588,13.7,3.927,14.923,8.158H521.153c1.207-4.156,7.087-7.447,14.514-8.123V288.992C528.092,288.3,522.127,284.895,521.09,280.625Z" transform="translate(-394.486 -279.044)"/>
        <path id="路径_24653" data-name="路径 24653" class="cls-5" d="M523.6,289.144l2.819-1.454c-8.126,0-14.715-3.689-14.715-8.245a1.448,1.448,0,0,1,.014-.249l-2.671,1.58C510.083,285.046,516.039,288.456,523.6,289.144Z" transform="translate(-382.42 -279.196)"/>
        <path id="路径_24654" data-name="路径 24654" class="cls-5" d="M412.537,280.776h.007l-2.677-1.58a1.563,1.563,0,0,1,.013.249c0,4.555-6.589,8.245-14.714,8.245-.142,0-.275,0-.409-.008l2.819,1.5C405.334,288.579,411.48,285.126,412.537,280.776Z" transform="translate(-394.756 -279.196)"/>
        <path id="路径_24655" data-name="路径 24655" class="cls-5" d="M397.575,288.366l-2.819-1.5V303.32l2.819-1.5Z" transform="translate(-394.756 -278.383)"/>
        <path id="路径_24656" data-name="路径 24656" class="cls-5" d="M519.931,280.776l2.676-1.58H408.419l2.683,1.58Z" transform="translate(-393.309 -279.196)"/>
        <path id="路径_24657" data-name="路径 24657" class="cls-6" d="M509.105,308.545l2.593,1.58c0-4.555,6.589-8.249,14.715-8.249l-2.819-1.454C516.181,301.1,510.311,304.389,509.105,308.545Z" transform="translate(-382.414 -276.948)"/>
        <path id="路径_24658" data-name="路径 24658" class="cls-7" d="M397.575,300.39l-2.819,1.5c.134-.008.268-.008.409-.008,8.125,0,14.714,3.694,14.714,8.249l2.593-1.58C411.248,304.317,405.179,300.978,397.575,300.39Z" transform="translate(-394.756 -276.951)"/>
        <path id="路径_24659" data-name="路径 24659" class="cls-5" d="M522.207,288.33v13.527l2.819,1.454V286.876Z" transform="translate(-381.026 -278.382)"/>
        <path id="路径_24660" data-name="路径 24660" class="cls-8" d="M411.03,307.767l-2.6,1.58h114.16l-2.6-1.58Z" transform="translate(-393.307 -276.17)"/>
      </g>
      <g id="组_46582" data-name="组 46582" transform="translate(4.351 2.879)">
        <path id="路径_24661" data-name="路径 24661" class="cls-9" d="M415.039,282.951,413.39,281.8c-1.5,4.032-7.326,7.219-14.7,8.049l2.108.9C407.671,289.648,413.036,286.71,415.039,282.951Z" transform="translate(-398.69 -281.799)"/>
        <path id="路径_24662" data-name="路径 24662" class="cls-9" d="M400.8,289.978l-2.108-.9v11.789l2.108-.9Z" transform="translate(-398.69 -281.029)"/>
        <path id="路径_24663" data-name="路径 24663" class="cls-9" d="M516.493,282.952l1.65-1.152H411.982l1.653,1.152Z" transform="translate(-397.282 -281.8)"/>
        <path id="路径_24664" data-name="路径 24664" class="cls-9" d="M520.109,290.678l2.108-.879c-7.162-.9-12.818-4.066-14.292-8l-1.647,1.151C508.242,286.614,513.45,289.524,520.109,290.678Z" transform="translate(-387.064 -281.799)"/>
        <path id="路径_24665" data-name="路径 24665" class="cls-9" d="M518.784,289.912V300.04l2.108.88V289.033Z" transform="translate(-385.739 -281.033)"/>
        <path id="路径_24666" data-name="路径 24666" class="cls-9" d="M400.8,298.925l-2.108.9c7.179.812,12.961,3.9,14.606,7.811l1.608-1.152C412.795,302.849,407.482,300,400.8,298.925Z" transform="translate(-398.69 -279.986)"/>
        <path id="路径_24667" data-name="路径 24667" class="cls-9" d="M506.395,306.475l1.61,1.152c1.611-3.866,7.126-6.881,14.2-7.762l-2.108-.879C513.6,300.109,508.448,302.926,506.395,306.475Z" transform="translate(-387.052 -279.979)"/>
        <path id="路径_24668" data-name="路径 24668" class="cls-9" d="M413.508,305.758,411.9,306.91H518.244l-1.613-1.152Z" transform="translate(-397.291 -279.262)"/>
        <g id="组_46581" data-name="组 46581" transform="translate(2.124 1.152)">
          <g id="组_46580" data-name="组 46580" class="cls-10">
            <path id="路径_24669" data-name="路径 24669" class="cls-1" d="M517.693,282.841H414.876c-2.005,3.759-7.38,6.7-14.265,7.8v9.991c6.7,1.078,12.017,3.924,14.13,7.557h103.08c2.057-3.549,7.223-6.367,13.726-7.489V290.568C524.876,289.413,519.66,286.5,517.693,282.841Z" transform="translate(-400.611 -282.841)"/>
          </g>
        </g>
      </g>
    </g>
    <path id="减去_3" data-name="减去 3" class="cls-2" d="M117.211,0H14.13A13.3,13.3,0,0,1,8.784,4.736,28.459,28.459,0,0,1,0,7.557v5.783H130.936V7.489a27.958,27.958,0,0,1-8.529-2.834A13.166,13.166,0,0,1,117.212,0h0Z" transform="translate(129.475 209.871)"/>
  </g>
</svg>
